# ProBuilder 5.0.6
# https://unity3d.com/unity/features/worldbuilding/probuilder
# 2024/4/23 16:34:07

mtllib ./Prism.mtl
o Prism

g Prism
v 3.239055 -2.773271 2.894694
v 0.2390549 -2.773271 2.894694
v 3.239055 0.2267293 2.894694
v 0.2390549 0.2267293 2.894694
v 0.2390549 -2.773271 -0.1053059
v 0.2390549 0.2267293 -0.1053059
v 0.2664877 -2.773189 -0.1053063
v 0.2664682 0.2268016 -0.1052849

vt 3.239055 -2.773271
vt 0.2390549 -2.773271
vt 3.239055 0.2267293
vt 0.2390549 0.2267293
vt 2.894694 -2.773271
vt -0.1053059 -2.773271
vt 2.894694 0.2267293
vt -0.1053059 0.2267293
vt -0.2390563 -2.773271
vt -0.2664891 -2.773189
vt -0.2390563 0.2267293
vt -0.2664696 0.2268016
vt -0.1127638 -2.773192
vt -4.336051 -2.773273
vt -0.1127652 0.2267991
vt -4.336051 0.2267267
vt -3.239055 2.894689
vt -0.2390549 2.894689
vt -0.2664682 -0.1052904
vt -0.2390549 -0.1053114
vt 0.258268 -0.09708495
vt 0.2308351 -0.0970846
vt 3.230822 2.902929
vt 0.2308351 2.902902

vn 0 0 1
vn -1 0 0
vn -1.276491E-05 0 -1
vn 0.00037642 3.558907E-06 -0.9999999
vn 0.0007656049 7.117814E-06 -0.9999997
vn 0.7103472 9.621458E-06 -0.7038515
vn 0 1 2.410528E-05
vn -0.001318978 0.9999983 1.205264E-05
vn -0.002637955 0.9999965 0
vn 0.002963569 -0.9999912 -0.002963569
vn 0.001481784 -0.9999956 -0.001481784
vn 0 -1 0

usemtl ProBuilder_Default_URP
f 3/3/1 4/4/1 2/2/1 1/1/1
f 4/7/2 6/8/2 5/6/2 2/5/2
f 6/11/4 8/12/5 7/10/4 5/9/3
f 8/15/6 3/16/6 1/14/6 7/13/6
f 8/19/8 6/20/9 4/18/8 3/17/7
f 1/23/11 2/24/12 5/22/11 7/21/10

