# ProBuilder 5.0.6
# https://unity3d.com/unity/features/worldbuilding/probuilder
# 2024/4/28 17:31:42

mtllib ./Stairs.mtl
o Stairs

g Stairs
v -1.5 -1.5 -1.5
v 1.5 -1.5 -1.5
v -1.5 -1.2 -1.5
v 1.5 -1.2 -1.5
v -1.5 -1.2 -1.2
v 1.5 -1.2 -1.2
v -1.5 -0.9 -1.2
v 1.5 -0.9 -1.2
v -1.5 -0.9 -0.9
v 1.5 -0.9 -0.9
v -1.5 -0.6 -0.9
v 1.5 -0.6 -0.9
v -1.5 -0.6 -0.6
v 1.5 -0.6 -0.6
v -1.5 -0.3 -0.6
v 1.5 -0.3 -0.6
v -1.5 -0.3 -0.3
v 1.5 -0.3 -0.3
v -1.5 0 -0.3
v 1.5 0 -0.3
v -1.5 0 -5.684342E-14
v 1.5 0 -5.684342E-14
v -1.5 0.3000001 -5.684342E-14
v 1.5 0.3000001 -5.684342E-14
v -1.5 0.3000001 0.3
v 1.5 0.3000001 0.3
v -1.5 0.5999999 0.3
v 1.5 0.5999999 0.3
v -1.5 0.5999999 0.6
v 1.5 0.5999999 0.6
v -1.5 0.9000001 0.6
v 1.5 0.9000001 0.6
v -1.5 0.9000001 0.9
v 1.5 0.9000001 0.9
v -1.5 1.2 0.9
v 1.5 1.2 0.9
v -1.5 1.2 1.2
v 1.5 1.2 1.2
v -1.5 1.5 1.2
v 1.5 1.5 1.2
v -1.5 1.5 1.5
v 1.5 1.5 1.5
v 1.5 -1.5 -1.2
v 1.5 -1.5 -0.9
v 1.5 -1.5 -0.6
v 1.5 -1.5 -0.3
v 1.5 -0.3 -0.3
v 1.5 -1.5 -5.684342E-14
v 1.5 0 -0.3
v 1.5 -1.5 0.3
v 1.5 -1.5 0.6
v 1.5 -1.5 0.9000002
v 1.5 -1.5 1.2
v 1.5 1.2 1.2
v 1.5 1.2 0.9000002
v 1.5 -1.5 1.5
v -1.5 -1.5 -1.2
v -1.5 -1.5 -0.9
v -1.5 -1.5 -0.6
v -1.5 -1.5 -0.3
v -1.5 -0.3 -0.3
v -1.5 -1.5 -5.684342E-14
v -1.5 0 -0.3
v -1.5 -1.5 0.3
v -1.5 -1.5 0.6
v -1.5 -1.5 0.9000002
v -1.5 -1.5 1.2
v -1.5 1.2 1.2
v -1.5 1.2 0.9000002
v -1.5 -1.5 1.5

vt 1.006015 -0.01007879
vt -0.0004353523 -0.01007879
vt 1.006015 0.09056628
vt -0.0004353523 0.09056628
vt 1.006015 0.1912113
vt -0.0004353523 0.1912113
vt 1.006015 0.2918564
vt -0.0004353523 0.2918564
vt 1.006015 0.3925015
vt -0.0004353523 0.3925015
vt 1.006015 0.4931465
vt -0.0004353523 0.4931465
vt 1.006015 0.5937916
vt -0.0004353523 0.5937916
vt 1.006015 0.6944367
vt -0.0004353523 0.6944367
vt 1.006015 0.7950817
vt -0.0004353523 0.7950817
vt 1.006015 0.8957268
vt -0.0004353523 0.8957268
vt 1.006015 0.9963719
vt -0.0004353523 0.9963719
vt 0.9053702 -0.01007879
vt 0.9053702 0.09056625
vt 0.8047252 -0.01007879
vt 0.8047252 0.1912113
vt 0.9053702 0.1912113
vt 0.7040801 -0.01007879
vt 0.7040801 0.2918564
vt 0.8047252 0.2918564
vt 0.603435 -0.01007879
vt 0.603435 0.3925015
vt 0.7040801 0.3925015
vt 0.50279 -0.01007879
vt 0.50279 0.4931465
vt 0.603435 0.4931465
vt 0.4021449 -0.01007879
vt 0.4021449 0.5937916
vt 0.50279 0.5937916
vt 0.3014998 -0.01007879
vt 0.3014998 0.6944367
vt 0.4021449 0.6944367
vt 0.2008547 -0.01007879
vt 0.2008547 0.7950817
vt 0.3014998 0.7950817
vt 0.1002098 -0.01007879
vt 0.1002098 0.8957267
vt 0.2008547 0.8957267
vt 0.1002098 0.9963719
vt 0.1002097 0.09056625
vt 0.2008548 0.1912113
vt 0.1002097 0.1912113
vt 0.3014998 0.2918564
vt 0.2008548 0.2918564
vt 0.4021449 0.3925015
vt 0.3014998 0.3925015
vt 0.4021449 0.4931465
vt 0.603435 0.5937916
vt 0.7040801 0.6944367
vt 0.603435 0.6944367
vt 0.8047252 0.7950817
vt 0.7040801 0.7950817
vt 0.9053702 0.8957267
vt 0.8047252 0.8957267
vt 0.9053702 0.9963719

vn 0 0 -1
vn 0 1 0
vn 1 0 0
vn -1 0 0
vn 0 0 1

usemtl simplecube
f 6/24/3 8/27/3 10/26/3
f 10/26/3 12/30/3 14/29/3
f 14/29/3 16/33/3 47/32/3
f 47/32/3 49/36/3 22/35/3
f 22/35/3 24/39/3 26/38/3
f 26/38/3 28/42/3 30/41/3
f 30/41/3 32/45/3 34/44/3
f 34/44/3 55/48/3 54/47/3
f 54/47/3 40/49/3 42/22/3
f 9/51/4 7/52/4 5/50/4
f 13/53/4 11/54/4 9/51/4
f 61/55/4 15/56/4 13/53/4
f 21/35/4 63/57/4 61/55/4
f 25/58/4 23/39/4 21/35/4
f 29/59/4 27/60/4 25/58/4
f 33/61/4 31/62/4 29/59/4
f 68/63/4 69/64/4 33/61/4
f 41/21/4 39/65/4 68/63/4
f 4/4/1 2/2/1 1/1/1
f 1/1/1 3/3/1 4/4/1
f 6/4/2 4/2/2 3/1/2
f 3/1/2 5/3/2 6/4/2
f 8/6/1 6/4/1 5/3/1
f 5/3/1 7/5/1 8/6/1
f 10/6/2 8/4/2 7/3/2
f 7/3/2 9/5/2 10/6/2
f 12/8/1 10/6/1 9/5/1
f 9/5/1 11/7/1 12/8/1
f 14/8/2 12/6/2 11/5/2
f 11/5/2 13/7/2 14/8/2
f 16/10/1 14/8/1 13/7/1
f 13/7/1 15/9/1 16/10/1
f 18/10/2 16/8/2 15/7/2
f 15/7/2 17/9/2 18/10/2
f 20/12/1 18/10/1 17/9/1
f 17/9/1 19/11/1 20/12/1
f 22/12/2 20/10/2 19/9/2
f 19/9/2 21/11/2 22/12/2
f 24/14/1 22/12/1 21/11/1
f 21/11/1 23/13/1 24/14/1
f 26/14/2 24/12/2 23/11/2
f 23/11/2 25/13/2 26/14/2
f 28/16/1 26/14/1 25/13/1
f 25/13/1 27/15/1 28/16/1
f 30/16/2 28/14/2 27/13/2
f 27/13/2 29/15/2 30/16/2
f 32/18/1 30/16/1 29/15/1
f 29/15/1 31/17/1 32/18/1
f 34/18/2 32/16/2 31/15/2
f 31/15/2 33/17/2 34/18/2
f 36/20/1 34/18/1 33/17/1
f 33/17/1 35/19/1 36/20/1
f 38/20/2 36/18/2 35/17/2
f 35/17/2 37/19/2 38/20/2
f 40/22/1 38/20/1 37/19/1
f 37/19/1 39/21/1 40/22/1
f 42/22/2 40/20/2 39/19/2
f 39/19/2 41/21/2 42/22/2
f 6/24/3 43/23/3 2/1/3
f 2/1/3 4/3/3 6/24/3
f 10/26/3 44/25/3 43/23/3
f 43/23/3 6/24/3 10/26/3
f 14/29/3 45/28/3 44/25/3
f 44/25/3 10/26/3 14/29/3
f 47/32/3 46/31/3 45/28/3
f 45/28/3 14/29/3 47/32/3
f 22/35/3 48/34/3 46/31/3
f 46/31/3 47/32/3 22/35/3
f 26/38/3 50/37/3 48/34/3
f 48/34/3 22/35/3 26/38/3
f 30/41/3 51/40/3 50/37/3
f 50/37/3 26/38/3 30/41/3
f 34/44/3 52/43/3 51/40/3
f 51/40/3 30/41/3 34/44/3
f 54/47/3 53/46/3 52/43/3
f 52/43/3 34/44/3 54/47/3
f 42/22/3 56/2/3 53/46/3
f 53/46/3 54/47/3 42/22/3
f 3/4/4 1/2/4 57/46/4
f 57/46/4 5/50/4 3/4/4
f 5/50/4 57/46/4 58/43/4
f 58/43/4 9/51/4 5/50/4
f 9/51/4 58/43/4 59/40/4
f 59/40/4 13/53/4 9/51/4
f 13/53/4 59/40/4 60/37/4
f 60/37/4 61/55/4 13/53/4
f 61/55/4 60/37/4 62/34/4
f 62/34/4 21/35/4 61/55/4
f 21/35/4 62/34/4 64/31/4
f 64/31/4 25/58/4 21/35/4
f 25/58/4 64/31/4 65/28/4
f 65/28/4 29/59/4 25/58/4
f 29/59/4 65/28/4 66/25/4
f 66/25/4 33/61/4 29/59/4
f 33/61/4 66/25/4 67/23/4
f 67/23/4 68/63/4 33/61/4
f 68/63/4 67/23/4 70/1/4
f 70/1/4 41/21/4 68/63/4
f 41/22/5 70/2/5 56/1/5
f 56/1/5 42/21/5 41/22/5

